<svg xmlns:dc="http://purl.org/dc/elements/1.1/" xmlns:cc="http://creativecommons.org/ns#" xmlns:rdf="http://www.w3.org/1999/02/22-rdf-syntax-ns#" xmlns:svg="http://www.w3.org/2000/svg" xmlns="http://www.w3.org/2000/svg" xmlns:sodipodi="http://sodipodi.sourceforge.net/DTD/sodipodi-0.dtd" xmlns:inkscape="http://www.inkscape.org/namespaces/inkscape" height="14" viewBox="0 0 11.2 11.2" width="14" id="svg2" inkscape:version="0.91 r13725" sodipodi:docname="+blue.svg"><metadata></metadata><defs id="defs8"></defs><path d="M 5.6,0 C 2.5120361,0 0,2.51204 0,5.6 c 0,3.08796 2.5120361,5.6 5.6,5.6 3.087964,0 5.6,-2.51204 5.6,-5.6 C 11.2,2.51204 8.687964,0 5.6,0 Z" id="path4" style="fill:#ffffff;fill-opacity:1" inkscape:connector-curvature="0" sodipodi:nodetypes="sssss"></path><path inkscape:connector-curvature="0" style="fill:#2272b6;fill-opacity:1" id="path4133" d="M 5.5999999,1e-7 C 2.5120361,1e-7 0,2.5120401 0,5.6000001 0,8.6879601 2.5120361,11.2 5.5999999,11.2 8.6879639,11.2 11.2,8.6879601 11.2,5.6000001 c 0,-3.08796 -2.5120361,-5.6 -5.6000001,-5.6 z m 2.45,6.06664 -1.983362,0 0,1.98336 c 0,0.25763 -0.209008,0.46664 -0.466638,0.46664 -0.257629,0 -0.466638,-0.20901 -0.466638,-0.46664 l 0,-1.98336 -1.9833619,0 c -0.2576294,0 -0.4666382,-0.20901 -0.4666382,-0.46664 0,-0.25763 0.2090088,-0.46664 0.4666382,-0.46664 l 1.9833619,0 0,-1.98336 c 0,-0.25763 0.209009,-0.46664 0.466638,-0.46664 0.25763,0 0.466638,0.20901 0.466638,0.46664 l 0,1.98336 1.983362,0 c 0.25763,0 0.466638,0.20901 0.466638,0.46664 0,0.25763 -0.209008,0.46664 -0.466638,0.46664 z m 0,0"></path></svg>