<svg xmlns:dc="http://purl.org/dc/elements/1.1/" xmlns:cc="http://creativecommons.org/ns#" xmlns:rdf="http://www.w3.org/1999/02/22-rdf-syntax-ns#" xmlns:svg="http://www.w3.org/2000/svg" xmlns="http://www.w3.org/2000/svg" xmlns:sodipodi="http://sodipodi.sourceforge.net/DTD/sodipodi-0.dtd" xmlns:inkscape="http://www.inkscape.org/namespaces/inkscape" height="14" viewBox="0 0 11.2 11.2" width="14" id="svg2" inkscape:version="0.91 r13725" sodipodi:docname="-green.svg"><metadata></metadata><defs id="defs8"></defs><path d="M 5.6,0 C 2.5120361,0 0,2.51204 0,5.6 c 0,3.08796 2.5120361,5.6 5.6,5.6 3.0879639,0 5.6,-2.51204 5.6,-5.6 C 11.2,2.51204 8.6879639,0 5.6,0 Z" id="path4" style="fill:#ffffff;fill-opacity:1" inkscape:connector-curvature="0" sodipodi:nodetypes="sssss"></path><path inkscape:connector-curvature="0" style="fill:#22b6af;fill-opacity:1" id="path4133" d="M 5.6,0 C 2.5120361,0 0,2.51204 0,5.6 c 0,3.08796 2.5120361,5.6 5.6,5.6 3.0879643,0 5.6,-2.51204 5.6,-5.6 C 11.2,2.51204 8.6879643,0 5.6,0 Z M 8.0500003,6.06664 3.15,6.06664 C 2.8923706,6.06664 2.6833618,5.85763 2.6833618,5.6 2.6833618,5.34237 2.8923706,5.13336 3.15,5.13336 l 4.9000003,0 c 0.257629,0 0.466638,0.20901 0.466638,0.46664 0,0.25763 -0.209009,0.46664 -0.466638,0.46664 z m 0,0"></path></svg>