<svg xmlns:dc="http://purl.org/dc/elements/1.1/" xmlns:cc="http://creativecommons.org/ns#" xmlns:rdf="http://www.w3.org/1999/02/22-rdf-syntax-ns#" xmlns:svg="http://www.w3.org/2000/svg" xmlns="http://www.w3.org/2000/svg" xmlns:sodipodi="http://sodipodi.sourceforge.net/DTD/sodipodi-0.dtd" xmlns:inkscape="http://www.inkscape.org/namespaces/inkscape" id="Capa_1" x="0px" y="0px" viewBox="0 0 18 18" xml:space="preserve" inkscape:version="0.91 r13725" sodipodi:docname="icn-clock-white.svg" width="18" height="18"><metadata></metadata><defs id="defs47"></defs><g id="g4177" transform="scale(0.03515625,0.03515625)" style="fill:#ffffff;fill-opacity:1"><g id="g3" style="fill:#ffffff;fill-opacity:1"><g id="g5" style="fill:#ffffff;fill-opacity:1"><path id="path7" d="m 256,0 c -6.013,0 -10.894,4.88 -10.894,10.894 0,6.013 4.88,10.894 10.894,10.894 129.144,0 234.213,105.069 234.213,234.213 C 490.213,385.145 385.144,490.213 256,490.213 126.856,490.213 21.787,385.144 21.787,256 c 0,-6.013 -4.88,-10.894 -10.894,-10.894 C 4.88,245.106 0,249.987 0,256 0,397.159 114.841,512 256,512 397.159,512 512,397.159 512,256 512,114.841 397.159,0 256,0 Z" inkscape:connector-curvature="0" style="fill:#ffffff;fill-opacity:1"></path></g></g><g id="g9" style="fill:#ffffff;fill-opacity:1"><g id="g11" style="fill:#ffffff;fill-opacity:1"><path id="path13" d="m 256,81.702 c -6.013,0 -10.894,4.88 -10.894,10.894 l 0,152.511 -98.043,0 c -6.013,0 -10.894,4.88 -10.894,10.894 0,6.013 4.88,10.894 10.894,10.894 l 108.937,0 c 6.013,0 10.894,-4.88 10.894,-10.894 l 0,-163.405 c 0,-6.014 -4.881,-10.894 -10.894,-10.894 z" inkscape:connector-curvature="0" style="fill:#ffffff;fill-opacity:1"></path></g></g></g><g id="g15" transform="translate(0,-494)"></g><g id="g17" transform="translate(0,-494)"></g><g id="g19" transform="translate(0,-494)"></g><g id="g21" transform="translate(0,-494)"></g><g id="g23" transform="translate(0,-494)"></g><g id="g25" transform="translate(0,-494)"></g><g id="g27" transform="translate(0,-494)"></g><g id="g29" transform="translate(0,-494)"></g><g id="g31" transform="translate(0,-494)"></g><g id="g33" transform="translate(0,-494)"></g><g id="g35" transform="translate(0,-494)"></g><g id="g37" transform="translate(0,-494)"></g><g id="g39" transform="translate(0,-494)"></g><g id="g41" transform="translate(0,-494)"></g><g id="g43" transform="translate(0,-494)"></g></svg>