<svg xmlns:dc="http://purl.org/dc/elements/1.1/" xmlns:cc="http://creativecommons.org/ns#" xmlns:rdf="http://www.w3.org/1999/02/22-rdf-syntax-ns#" xmlns:svg="http://www.w3.org/2000/svg" xmlns="http://www.w3.org/2000/svg" xmlns:sodipodi="http://sodipodi.sourceforge.net/DTD/sodipodi-0.dtd" xmlns:inkscape="http://www.inkscape.org/namespaces/inkscape" id="Capa_1" x="0px" y="0px" viewBox="0 0 18 18" xml:space="preserve" inkscape:version="0.91 r13725" sodipodi:docname="icon-mail-white.svg" width="18" height="18"><metadata></metadata><defs id="defs41"></defs><g id="g3" transform="matrix(0.03515625,0,0,0.03515625,0,1.9148906)" style="fill:#ffffff;fill-opacity:1"><g id="g5" style="fill:#ffffff;fill-opacity:1"><path d="m 392.17,54.468 -190.638,0 c -6.013,0 -10.894,4.88 -10.894,10.894 0,6.013 4.88,10.894 10.894,10.894 l 190.638,0 c 54.06,0 98.043,43.983 98.043,98.043 l 0,163.404 c 0,54.06 -43.983,98.043 -98.043,98.043 l -272.34,0 c -54.06,0 -98.043,-43.983 -98.043,-98.043 l 0,-163.405 c 0,-52.583 41.608,-95.63 93.625,-97.944 l 132.886,132.88 c 4.248,4.254 11.15,4.254 15.404,0 l 81.702,-81.702 c 4.254,-4.254 4.254,-11.15 0,-15.404 -4.254,-4.254 -11.15,-4.254 -15.404,0 L 256,186.123 127.532,57.66 C 125.489,55.617 122.717,54.468 119.83,54.468 53.755,54.468 0,108.223 0,174.298 l 0,163.404 c 0,66.075 53.755,119.83 119.83,119.83 l 272.34,0 c 66.075,0 119.83,-53.755 119.83,-119.83 l 0,-163.404 C 512,108.223 458.245,54.468 392.17,54.468 Z" id="path7" inkscape:connector-curvature="0" style="fill:#ffffff;fill-opacity:1"></path></g></g><g id="g9" transform="translate(0,-494)"></g><g id="g11" transform="translate(0,-494)"></g><g id="g13" transform="translate(0,-494)"></g><g id="g15" transform="translate(0,-494)"></g><g id="g17" transform="translate(0,-494)"></g><g id="g19" transform="translate(0,-494)"></g><g id="g21" transform="translate(0,-494)"></g><g id="g23" transform="translate(0,-494)"></g><g id="g25" transform="translate(0,-494)"></g><g id="g27" transform="translate(0,-494)"></g><g id="g29" transform="translate(0,-494)"></g><g id="g31" transform="translate(0,-494)"></g><g id="g33" transform="translate(0,-494)"></g><g id="g35" transform="translate(0,-494)"></g><g id="g37" transform="translate(0,-494)"></g></svg>