<svg xmlns:dc="http://purl.org/dc/elements/1.1/" xmlns:cc="http://creativecommons.org/ns#" xmlns:rdf="http://www.w3.org/1999/02/22-rdf-syntax-ns#" xmlns:svg="http://www.w3.org/2000/svg" xmlns="http://www.w3.org/2000/svg" xmlns:sodipodi="http://sodipodi.sourceforge.net/DTD/sodipodi-0.dtd" xmlns:inkscape="http://www.inkscape.org/namespaces/inkscape" id="Capa_1" x="0px" y="0px" viewBox="0 0 18.000001 18.000001" xml:space="preserve" inkscape:version="0.91 r13725" sodipodi:docname="icon-copy-white.svg" width="18" height="18"><metadata></metadata><defs id="defs49"></defs><g id="g3" transform="matrix(0.03514669,0,0,0.03514669,1.7711217e-5,-0.03334375)" style="fill:#ffffff;fill-opacity:0.94117647"><g id="g5" style="fill:#ffffff;fill-opacity:0.94117647"><g id="g7" style="fill:#ffffff;fill-opacity:0.94117647"><path d="M 109.534,86.707 88.574,62.531 c -8.592,7.461 -16.684,15.478 -24.224,24 l 24,21.184 c 6.596,-7.457 13.673,-14.475 21.184,-21.008 z" id="path9" inkscape:connector-curvature="0" style="fill:#ffffff;fill-opacity:0.94117647"></path><path d="m 70.078,131.331 -26.576,-17.84 c -6.337,9.457 -12.04,19.324 -17.072,29.536 l 28.704,14.128 c 4.404,-8.929 9.397,-17.556 14.944,-25.824 z" id="path11" inkscape:connector-curvature="0" style="fill:#ffffff;fill-opacity:0.94117647"></path><path d="M 337.525,13.34 C 311.31,4.541 283.843,0.048 256.19,0.035 206.285,-0.04 157.456,14.536 115.758,41.955 l 17.6,26.736 C 169.83,44.709 212.54,31.963 256.19,32.035 379.787,32.151 479.888,132.439 479.773,256.036 479.657,379.633 379.369,479.734 255.772,479.619 132.175,479.504 32.073,379.214 32.189,255.617 c 0.023,-24.09 3.935,-48.019 11.585,-70.863 l -30.4,-10.176 C -31.612,308.616 40.577,453.743 174.614,498.73 308.651,543.717 453.778,471.528 498.765,337.491 543.752,203.454 471.562,58.327 337.525,13.34 Z" id="path13" inkscape:connector-curvature="0" style="fill:#ffffff;fill-opacity:0.94117647"></path><path d="m 256.19,128.035 c 36.35,0.076 70.956,15.588 95.2,42.672 l 23.824,-21.344 C 316.301,83.502 215.151,77.869 149.29,136.783 83.429,195.696 77.796,296.846 136.71,362.707 c 58.914,65.861 160.063,71.493 225.924,12.58 4.423,-3.957 8.623,-8.157 12.58,-12.58 L 351.39,341.363 C 304.265,394.057 223.345,398.57 170.652,351.445 117.958,304.32 113.445,223.4 160.57,170.707 184.902,143.5 219.691,127.975 256.19,128.035 Z" id="path15" inkscape:connector-curvature="0" style="fill:#ffffff;fill-opacity:0.94117647"></path></g></g></g><g id="g17" transform="translate(0,-494.13904)"></g><g id="g19" transform="translate(0,-494.13904)"></g><g id="g21" transform="translate(0,-494.13904)"></g><g id="g23" transform="translate(0,-494.13904)"></g><g id="g25" transform="translate(0,-494.13904)"></g><g id="g27" transform="translate(0,-494.13904)"></g><g id="g29" transform="translate(0,-494.13904)"></g><g id="g31" transform="translate(0,-494.13904)"></g><g id="g33" transform="translate(0,-494.13904)"></g><g id="g35" transform="translate(0,-494.13904)"></g><g id="g37" transform="translate(0,-494.13904)"></g><g id="g39" transform="translate(0,-494.13904)"></g><g id="g41" transform="translate(0,-494.13904)"></g><g id="g43" transform="translate(0,-494.13904)"></g><g id="g45" transform="translate(0,-494.13904)"></g></svg>