<svg xmlns:dc="http://purl.org/dc/elements/1.1/" xmlns:cc="http://creativecommons.org/ns#" xmlns:rdf="http://www.w3.org/1999/02/22-rdf-syntax-ns#" xmlns:svg="http://www.w3.org/2000/svg" xmlns="http://www.w3.org/2000/svg" xmlns:sodipodi="http://sodipodi.sourceforge.net/DTD/sodipodi-0.dtd" xmlns:inkscape="http://www.inkscape.org/namespaces/inkscape" id="Capa_1" height="30" viewBox="0 0 30 30" width="30" inkscape:version="0.91 r13725" sodipodi:docname="icon-4-white.svg"><metadata></metadata><defs id="defs13"></defs><g id="g3" transform="scale(0.05859375,0.05859375)" style="fill:#ffffff;fill-opacity:1"><g id="g5" style="fill:#ffffff;fill-opacity:1"><path d="m 495.837,254.634 0,-91.464 c 0,-21.466 -9.202,-41.957 -25.246,-56.218 C 457.747,95.534 450.38,79.13 450.38,61.944 l 0,-14.619 2.602,0 c 4.143,0 7.5,-3.358 7.5,-7.5 l 0,-32.325 c 0,-4.142 -3.357,-7.5 -7.5,-7.5 l -80.813,0 c -4.143,0 -7.5,3.358 -7.5,7.5 l 0,32.325 c 0,4.142 3.357,7.5 7.5,7.5 l 2.602,0 0,14.619 c 0,17.186 -7.367,33.59 -20.211,45.008 -3.818,3.394 -7.235,7.149 -10.246,11.178 l 0,-5.572 c -0.227,-1.536 0.202,-1.218 -1.035,-3.803 l -13.555,-23.043 7.09,0 c 4.143,0 7.5,-3.358 7.5,-7.5 0,-4.142 -3.357,-7.5 -7.5,-7.5 l -161.627,0 c -4.143,0 -7.5,3.358 -7.5,7.5 0,4.142 3.357,7.5 7.5,7.5 l 7.09,0 -13.555,23.043 c -0.148,0.246 -1.069,2.09 -1.035,3.803 l 0,8.663 -95.58,0 -28.585,-16.198 c -3.604,-2.043 -8.181,-0.776 -10.223,2.827 -2.042,3.604 -0.776,8.181 2.828,10.223 l 5.554,3.147 -18.018,0 c -4.143,0 -7.5,3.358 -7.5,7.5 l 0,125.914 C 7.13,255.37 0,262.943 0,272.163 l 0,20.203 c 0,9.22 7.13,16.793 16.163,17.529 l 0,174.402 c 0,15.275 12.428,27.703 27.703,27.703 l 61.813,0 c 4.143,0 7.5,-3.358 7.5,-7.5 0,-4.142 -3.357,-7.5 -7.5,-7.5 l -61.813,0 c -7.005,0 -12.703,-5.699 -12.703,-12.703 l 0,-174.33 449.674,0 0,174.33 c 0,7.004 -5.698,12.703 -12.703,12.703 l -327.413,0 c -4.143,0 -7.5,3.358 -7.5,7.5 0,4.142 3.357,7.5 7.5,7.5 l 327.413,0 c 15.275,0 27.703,-12.428 27.703,-27.703 l 0,-174.403 C 504.87,309.158 512,301.585 512,292.365 l 0,-20.203 c 0,-9.219 -7.13,-16.792 -16.163,-17.528 z M 379.669,15 l 65.813,0 0,17.325 -65.813,0 z m -67.349,70.711 11.38,19.346 -135.4,0 11.38,-19.346 z m -281.157,168.85 0,-25.407 136.523,0 0,25.407 z m 136.524,-40.407 -136.524,0 0,-45.609 136.523,0 0,45.609 z m 0,-77.934 0,17.325 -136.524,0 0,-17.325 z M 497,292.366 c 0,1.435 -1.167,2.602 -2.602,2.602 l -476.796,0 c -1.435,0 -2.602,-1.167 -2.602,-2.602 l 0,-20.203 c 0,-1.435 1.167,-2.602 2.602,-2.602 l 375.041,0 c 4.143,0 7.5,-3.358 7.5,-7.5 0,-4.142 -3.357,-7.5 -7.5,-7.5 l -48.329,0 0,-41.347 c 0,-4.142 -3.357,-7.5 -7.5,-7.5 -4.143,0 -7.5,3.358 -7.5,7.5 l 0,41.347 -38.546,0 c 8.134,-8.59 13.139,-20.171 13.139,-32.907 0,-26.416 -21.49,-47.906 -47.906,-47.906 -26.416,0 -47.906,21.491 -47.906,47.906 0,12.736 5.005,24.317 13.139,32.907 l -38.546,0 0,-134.504 146.627,0 0,58.119 c 0,4.142 3.357,7.5 7.5,7.5 4.143,0 7.5,-3.358 7.5,-7.5 l 0,-15.006 c 0,-17.186 7.367,-33.59 20.211,-45.007 16.044,-14.262 25.246,-34.753 25.246,-56.219 l 0,-14.619 45.609,0 0,14.619 c 0,21.466 9.202,41.957 25.246,56.219 12.844,11.417 20.211,27.822 20.211,45.007 l 0,91.391 -53.908,0 c -4.143,0 -7.5,3.358 -7.5,7.5 0,4.142 3.357,7.5 7.5,7.5 l 67.47,0 c 1.435,0 2.602,1.167 2.602,2.602 l 0,20.203 z M 223.094,221.654 c 0,-18.145 14.762,-32.906 32.906,-32.906 18.144,0 32.906,14.762 32.906,32.906 0,18.145 -14.762,32.907 -32.906,32.907 -18.144,0 -32.906,-14.762 -32.906,-32.907 z" id="path7" inkscape:connector-curvature="0" style="fill:#ffffff;fill-opacity:1"></path><path d="m 256,461.242 c 1.989,0 3.896,-0.79 5.304,-2.197 l 45.338,-45.338 c 7.521,-7.522 11.664,-17.523 11.664,-28.161 0,-10.638 -4.143,-20.639 -11.664,-28.161 -13.666,-13.667 -35.15,-15.268 -50.642,-4.699 -15.487,-10.568 -36.976,-8.967 -50.641,4.699 -7.522,7.521 -11.665,17.522 -11.665,28.161 0,10.638 4.143,20.639 11.664,28.161 l 45.338,45.338 c 1.408,1.407 3.315,2.197 5.304,2.197 z m -47.306,-75.696 c 0,-6.631 2.582,-12.865 7.271,-17.554 4.813,-4.813 11.179,-7.224 17.55,-7.224 6.237,0 12.48,2.313 17.266,6.95 2.908,2.818 7.529,2.818 10.438,0 9.674,-9.373 25.292,-9.25 34.815,0.274 l 0.001,0 c 4.688,4.689 7.271,10.923 7.271,17.554 0,6.631 -2.582,12.865 -7.271,17.554 L 256,443.136 215.966,403.101 c -4.69,-4.689 -7.272,-10.924 -7.272,-17.555 z" id="path9" inkscape:connector-curvature="0" style="fill:#ffffff;fill-opacity:1"></path></g></g></svg>