<svg xmlns:dc="http://purl.org/dc/elements/1.1/" xmlns:cc="http://creativecommons.org/ns#" xmlns:rdf="http://www.w3.org/1999/02/22-rdf-syntax-ns#" xmlns:svg="http://www.w3.org/2000/svg" xmlns="http://www.w3.org/2000/svg" xmlns:sodipodi="http://sodipodi.sourceforge.net/DTD/sodipodi-0.dtd" xmlns:inkscape="http://www.inkscape.org/namespaces/inkscape" height="18pt" viewBox="-9 0 18 18.02449" width="18pt" id="svg2" inkscape:version="0.91 r13725" sodipodi:docname="icon-phone-white.svg"><metadata></metadata><defs id="defs10"></defs><path d="m -0.00812368,0.03557413 c -0.1000824,0 -0.20017191,0.03826686 -0.27652856,0.11470633 -0.15271271,0.15271151 -0.15271271,0.40013997 0,0.55285148 l 0.11865616,0.11865498 C -4.8371058,0.90666302 -8.6117008,4.7302512 -8.6117008,9.4211984 c 0,4.7439106 3.85962,8.6032916 8.60357762,8.6032916 4.74395688,0 8.60337728,-3.859381 8.60337728,-8.6032916 0,-0.2162028 -0.1747641,-0.3910993 -0.3909681,-0.3910993 -0.216204,0 -0.3911698,0.1748965 -0.3911698,0.3910993 0,4.3126756 -3.5085198,7.8212286 -7.82123938,7.8212286 -4.31288592,0 -7.82144032,-3.508553 -7.82144032,-7.8212286 0,-4.2552019 3.4173296,-7.7207702 7.65085202,-7.812664 l -0.10594029,0.1059391 c -0.1527127,0.1527114 -0.1527127,0.4001735 0,0.5530522 0.0763571,0.076355 0.17644619,0.1144378 0.27652859,0.1144378 0.1000824,0 0.2001723,-0.038083 0.2765287,-0.1144378 L 1.0504755,1.485395 c 0.152713,-0.1528787 0.152713,-0.4003405 0,-0.55305229 L 0.26840512,0.15027998 C 0.19204912,0.07384052 0.09195842,0.03557365 -0.00812368,0.03557365 Z m -5.09048482,4.69284467 0.016865,0.4070261 c 0.066164,1.6124921 0.5354708,3.1957514 1.3576813,4.5793433 0.8746738,1.3454968 2.0245311,2.4773018 3.41799433,3.4199688 1.38360577,0.823038 2.96859077,1.293546 4.58360437,1.359876 l 0.4071637,0.01686 0,-2.53578 c 0,-0.361229 -0.2162159,-0.683202 -0.5503804,-0.819206 L 2.3435753,10.425176 c -0.346361,-0.141349 -0.743889,-0.04928 -0.9886637,0.223389 l -1.52057348,1.639213 C -1.252363,11.588213 -2.1807166,10.66509 -2.8806229,9.5787336 L -1.240189,8.0623242 C -0.963,7.8130404 -0.8716309,7.4135715 -1.0126483,7.0687177 L -1.7435889,5.2782587 C -1.8805965,4.9440981 -2.2022398,4.7284188 -2.5631366,4.7284188 l -2.5354719,0 z m 0.8242326,0.7821296 1.7112393,0 c 0.042105,0 0.079861,0.025182 0.095567,0.063777 l 0.7309406,1.7903253 0,3.349e-4 c 0.016373,0.0401 0.00574,0.086342 -0.030517,0.1192564 L -3.2885899,8.8907641 C -3.8351152,7.8434975 -4.1716209,6.6903025 -4.2743759,5.5105484 Z m 6.2756366,5.6317086 c 0.015565,-0.0011 0.03155,0.0012 0.046713,0.007 l 1.7911456,0.731269 c 0.037756,0.01554 0.063317,0.05383 0.063317,0.09509 l 0,1.711222 C 2.7209926,13.584186 1.5664383,13.247012 0.51916822,12.699825 L 1.932664,11.176055 c 0.017857,-0.02036 0.042655,-0.03187 0.068597,-0.03379 z" id="path4" inkscape:connector-curvature="0" style="fill:#ffffff;fill-opacity:1"></path></svg>