<svg xmlns:dc="http://purl.org/dc/elements/1.1/" xmlns:cc="http://creativecommons.org/ns#" xmlns:rdf="http://www.w3.org/1999/02/22-rdf-syntax-ns#" xmlns:svg="http://www.w3.org/2000/svg" xmlns="http://www.w3.org/2000/svg" width="30" viewBox="0 0 30 30" height="30" id="Capa_1"><metadata></metadata><defs id="defs15"></defs><g style="fill:#ffffff;fill-opacity:1" transform="matrix(0.05859364,0,0,0.05859364,-1.0949979,-2.27364e-6)" id="g3"><g style="fill:#ffffff;fill-opacity:1" id="g5"><path style="fill:#ffffff;fill-opacity:1" id="path7" d="m 178.391,247.337 19.525,0 c 48.4,0 88.224,-37.423 92.052,-84.854 l 17.373,0 c -3.868,56.992 -51.469,102.18 -109.425,102.18 l -11.112,0 c -4.143,0 -7.5,3.357 -7.5,7.5 l 0,26.104 c 0,4.143 3.357,7.5 7.5,7.5 4.143,0 7.5,-3.357 7.5,-7.5 l 0,-18.604 3.612,0 c 68.748,0 124.679,-55.931 124.679,-124.68 0,-4.143 -3.357,-7.5 -7.5,-7.5 l -8.663,0 0,-93.515 c 0,-15.275 -12.428,-27.703 -27.703,-27.703 l -8.662,0 0,-8.663 C 270.066,7.896 262.17,0 252.465,0 L 238.322,0 C 228.617,0 220.72,7.896 220.72,17.602 l 0,32.325 c 0,9.705 7.896,17.602 17.602,17.602 l 14.143,0 c 9.705,0 17.602,-7.896 17.602,-17.602 l 0,-8.662 8.662,0 c 7.005,0 12.703,5.698 12.703,12.703 l 0,93.516 -8.662,0 c -4.143,0 -7.5,3.357 -7.5,7.5 0,42.653 -34.7,77.354 -77.354,77.354 l -19.525,0 c -4.143,0 -7.5,3.357 -7.5,7.5 0,4.143 3.357,7.499 7.5,7.499 z m 76.675,-197.41 c 0,1.435 -1.167,2.602 -2.602,2.602 l -14.143,0 c -1.435,0 -2.602,-1.167 -2.602,-2.602 l 0,-32.325 c 0,-1.435 1.167,-2.602 2.602,-2.602 l 14.143,0 c 1.435,0 2.602,1.167 2.602,2.602 z"></path><path style="fill:#ffffff;fill-opacity:1" id="path9" d="m 493.312,106.496 c 0,-37.557 -30.554,-68.11 -68.109,-68.11 -6.733,0 -13.39,0.982 -19.783,2.92 -3.964,1.201 -6.204,5.389 -5.003,9.353 1.201,3.965 5.391,6.204 9.353,5.003 4.982,-1.51 10.176,-2.275 15.434,-2.275 29.284,0 53.109,23.825 53.109,53.11 0,29.284 -23.825,53.109 -53.109,53.109 -29.284,0 -53.109,-23.825 -53.109,-53.109 0,-12.434 4.384,-24.524 12.345,-34.045 2.657,-3.177 2.234,-7.907 -0.943,-10.564 -3.177,-2.658 -7.908,-2.236 -10.564,0.943 -10.213,12.214 -15.837,27.721 -15.837,43.666 0,35.02 26.571,63.941 60.609,67.688 l 0,287.89 c 0,19.259 -15.668,34.927 -34.927,34.927 -19.259,0 -34.927,-15.668 -34.927,-34.927 l 0,-123.24 c 0,-27.529 -22.397,-49.927 -49.927,-49.927 -27.53,0 -49.927,22.397 -49.927,49.927 l 0,123.24 c 0,19.259 -15.668,34.927 -34.927,34.927 -19.259,0 -34.927,-15.668 -34.927,-34.927 l 0,-94.526 8.662,0 c 4.143,0 7.5,-3.357 7.5,-7.5 l 0,-26.689 c 0,-4.143 -3.357,-7.5 -7.5,-7.5 -4.143,0 -7.5,3.357 -7.5,7.5 l 0,19.189 -17.325,0 0,-80.384 c 0,-4.143 -3.357,-7.5 -7.5,-7.5 l -11.111,0 c -57.956,0 -105.557,-45.188 -109.425,-102.18 l 17.373,0 c 3.828,47.431 43.651,84.854 92.052,84.854 4.143,0 7.5,-3.357 7.5,-7.5 0,-4.143 -3.357,-7.5 -7.5,-7.5 -42.653,0 -77.354,-34.7 -77.354,-77.354 0,-4.143 -3.357,-7.5 -7.5,-7.5 l -8.663,0 0,-93.517 c 0,-7.005 5.698,-12.703 12.703,-12.703 l 8.663,0 0,8.662 c 0,9.705 7.896,17.602 17.602,17.602 l 14.142,0 c 9.705,0 17.602,-7.896 17.602,-17.602 l 0,-32.325 C 120.562,7.896 112.665,0 102.96,0 L 88.818,0 C 79.113,0 71.216,7.896 71.216,17.602 l 0,8.663 -8.663,0 c -15.275,0 -27.703,12.428 -27.703,27.703 l 0,93.516 -8.662,0 c -4.143,0 -7.5,3.357 -7.5,7.5 0,68.749 55.931,124.68 124.679,124.68 l 3.611,0 0,80.384 c 0,4.143 3.357,7.5 7.5,7.5 l 8.663,0 0,94.526 c 0,27.529 22.397,49.927 49.927,49.927 27.53,0 49.927,-22.397 49.927,-49.927 l 0,-123.24 c 0,-19.259 15.668,-34.927 34.927,-34.927 19.259,0 34.927,15.668 34.927,34.927 l 0,123.24 c 0,27.529 22.397,49.927 49.927,49.927 27.53,0 49.927,-22.397 49.927,-49.927 l 0,-287.89 c 34.038,-3.747 60.609,-32.668 60.609,-67.688 z M 86.217,17.602 C 86.217,16.167 87.384,15 88.819,15 l 14.142,0 c 1.435,0 2.602,1.167 2.602,2.602 l 0,32.325 c 0,1.435 -1.167,2.602 -2.602,2.602 l -14.143,0 c -1.435,0 -2.602,-1.167 -2.602,-2.602 l 0,-32.325 z"></path><path style="fill:#ffffff;fill-opacity:1" id="path11" d="m 452.905,106.496 c 0,-15.275 -12.428,-27.703 -27.703,-27.703 -15.275,0 -27.703,12.428 -27.703,27.703 0,15.275 12.428,27.703 27.703,27.703 15.275,0 27.703,-12.428 27.703,-27.703 z m -40.406,0 c 0,-7.005 5.698,-12.703 12.703,-12.703 7.005,0 12.703,5.698 12.703,12.703 0,7.005 -5.698,12.703 -12.703,12.703 -7.005,0 -12.703,-5.698 -12.703,-12.703 z"></path></g></g></svg>