<svg xmlns:dc="http://purl.org/dc/elements/1.1/" xmlns:cc="http://creativecommons.org/ns#" xmlns:rdf="http://www.w3.org/1999/02/22-rdf-syntax-ns#" xmlns:svg="http://www.w3.org/2000/svg" xmlns="http://www.w3.org/2000/svg" xmlns:sodipodi="http://sodipodi.sourceforge.net/DTD/sodipodi-0.dtd" xmlns:inkscape="http://www.inkscape.org/namespaces/inkscape" id="Capa_1" height="30" viewBox="0 0 30 30" width="30" inkscape:version="0.91 r13725" sodipodi:docname="icon2-white.svg"><metadata></metadata><defs id="defs13"></defs><g id="g3" transform="matrix(0.0585935,0,0,0.0585935,-2.7210821,10e-6)" style="fill:#ffffff;fill-opacity:1"><g id="g5" style="fill:#ffffff;fill-opacity:1"><path d="m 464.249,251.733 -40.356,-60.544 c -1.391,-2.087 -3.733,-3.341 -6.242,-3.341 l -33.992,0 c -4.143,0 -7.501,3.358 -7.501,7.501 0,4.143 3.358,7.501 7.501,7.501 l 29.977,0 30.406,45.616 -376.084,0 30.406,-45.616 124.22,0 15.307,15.307 -62.715,0 c -4.143,0 -7.501,3.358 -7.501,7.501 0,4.143 3.358,7.501 7.501,7.501 l 161.647,0 c 4.143,0 7.501,-3.358 7.501,-7.501 0,-4.143 -3.358,-7.501 -7.501,-7.501 l -62.715,0 15.307,-15.307 59.229,0 c 4.143,0 7.501,-3.358 7.501,-7.501 0,-4.143 -3.358,-7.501 -7.501,-7.501 l -44.227,0 29.797,-29.797 c 11.235,-11.235 17.423,-26.173 17.423,-42.062 0,-3.505 -0.318,-6.959 -0.908,-10.342 L 388.18,68.196 C 403.766,52.61 403.767,27.241 388.178,11.64 374.446,-2.082 352.857,-3.685 337.302,6.937 321.748,-3.695 300.161,-2.09 286.43,11.642 c -7.555,7.555 -11.716,17.599 -11.716,28.281 0,6.373 1.492,12.513 4.291,18.037 -8.338,1.878 -16.168,5.546 -23.005,10.8 -6.839,-5.256 -14.673,-8.906 -23.014,-10.783 2.804,-5.528 4.299,-11.674 4.299,-18.053 0,-10.682 -4.161,-20.726 -11.716,-28.281 -13.731,-13.73 -35.318,-15.336 -50.871,-4.705 -15.556,-10.622 -37.145,-9.018 -50.881,4.707 -15.584,15.597 -15.583,40.966 0.002,56.552 l 37.451,37.451 c -0.59,3.383 -0.908,6.837 -0.908,10.342 0,15.889 6.187,30.827 17.423,42.062 l 29.797,29.797 -113.233,0 c -2.508,0 -4.85,1.254 -6.242,3.341 l -40.356,60.544 c -0.826,1.205 -1.311,2.662 -1.311,4.234 l 0,40.412 c 0,4.143 3.358,7.501 7.501,7.501 l 2.602,0 0,200.62 c 0,4.143 3.358,7.501 7.501,7.501 l 310.284,0 c 4.143,0 7.501,-3.358 7.501,-7.501 0,-4.143 -3.358,-7.501 -7.501,-7.501 l -302.783,0 0,-193.121 28.451,0 c 4.143,0 7.501,-3.358 7.501,-7.501 0,-4.143 -3.358,-7.501 -7.501,-7.501 l -38.554,0 0,-25.41 389.116,0 0,25.41 -315.288,0 c -4.143,0 -7.501,3.358 -7.501,7.501 0,4.143 3.358,7.501 7.501,7.501 l 305.185,0 0,193.119 -31.078,0 c -4.143,0 -7.501,3.358 -7.501,7.501 0,4.143 3.358,7.501 7.501,7.501 l 38.579,0 c 4.143,0 7.501,-3.358 7.501,-7.501 l 0,-200.62 2.602,0 c 4.143,0 7.501,-3.358 7.501,-7.501 l 0,-40.412 c 0,-1.571 -0.485,-3.028 -1.311,-4.233 z M 297.039,22.25 c 9.588,-9.588 25.308,-9.712 35.041,-0.278 2.909,2.82 7.53,2.82 10.439,0.002 9.739,-9.431 25.464,-9.306 35.051,0.274 9.74,9.748 9.741,25.601 0.002,35.34 l -32.066,32.066 c -2.843,-5.747 -6.625,-11.06 -11.292,-15.727 -10.275,-10.276 -23.681,-16.325 -38.065,-17.273 -4.158,-4.595 -6.434,-10.487 -6.434,-16.731 0.002,-6.675 2.602,-12.952 7.324,-17.673 z M 134.427,57.588 c -9.739,-9.739 -9.738,-25.592 -0.002,-35.336 9.592,-9.584 25.318,-9.709 35.055,-0.278 2.91,2.819 7.531,2.817 10.439,-0.002 9.733,-9.435 25.453,-9.311 35.041,0.278 4.721,4.722 7.322,10.998 7.322,17.673 0,6.243 -2.275,12.133 -6.434,16.731 -14.383,0.948 -27.789,6.998 -38.064,17.273 -4.667,4.667 -8.448,9.98 -11.292,15.727 z m 40.937,58.4 c 0,-11.882 4.627,-23.052 13.029,-31.454 8.624,-8.624 20.032,-12.945 31.45,-12.945 11.177,0 22.363,4.145 30.938,12.454 2.909,2.818 7.53,2.818 10.439,0 17.335,-16.796 45.322,-16.574 62.388,0.491 8.402,8.402 13.029,19.572 13.029,31.454 0,11.882 -4.627,23.052 -13.029,31.454 L 256,215.05 188.392,147.442 c -8.401,-8.401 -13.028,-19.572 -13.028,-31.454 z" id="path7" inkscape:connector-curvature="0" style="fill:#ffffff;fill-opacity:1"></path><path d="m 256,349.636 c -15.492,-10.57 -36.98,-8.968 -50.648,4.699 -15.529,15.53 -15.529,40.799 0,56.329 l 45.344,45.344 c 1.465,1.465 3.384,2.197 5.304,2.197 1.92,0 3.839,-0.733 5.304,-2.197 l 45.344,-45.344 c 15.529,-15.53 15.529,-40.799 0,-56.329 C 292.98,340.667 271.492,339.065 256,349.636 Z m 40.04,15.307 c 9.68,9.68 9.68,25.433 0,35.113 l -40.04,40.04 -40.04,-40.04 c -9.68,-9.68 -9.68,-25.433 0,-35.113 4.813,-4.813 11.181,-7.225 17.553,-7.225 6.238,0 12.482,2.314 17.268,6.951 2.909,2.819 7.53,2.819 10.439,0 9.675,-9.375 25.295,-9.251 34.82,0.274 z" id="path9" inkscape:connector-curvature="0" style="fill:#ffffff;fill-opacity:1"></path></g></g></svg>