<svg xmlns:dc="http://purl.org/dc/elements/1.1/" xmlns:cc="http://creativecommons.org/ns#" xmlns:rdf="http://www.w3.org/1999/02/22-rdf-syntax-ns#" xmlns:svg="http://www.w3.org/2000/svg" xmlns="http://www.w3.org/2000/svg" xmlns:sodipodi="http://sodipodi.sourceforge.net/DTD/sodipodi-0.dtd" xmlns:inkscape="http://www.inkscape.org/namespaces/inkscape" id="Capa_1" height="30" viewBox="0 0 30 30" width="30" inkscape:version="0.91 r13725" sodipodi:docname="icon-3-white.svg"><metadata></metadata><defs id="defs61"></defs><g id="g3" transform="scale(0.05859375,0.05859375)" style="fill:#ffffff;fill-opacity:1"><g id="g5" style="fill:#ffffff;fill-opacity:1"><path d="m 339.331,80.167 c 1.731,0.822 3.473,1.681 5.175,2.553 1.095,0.561 2.262,0.826 3.413,0.826 2.725,0 5.354,-1.491 6.682,-4.083 1.888,-3.687 0.43,-8.206 -3.257,-10.094 -1.837,-0.94 -3.714,-1.866 -5.581,-2.752 -3.743,-1.777 -8.215,-0.183 -9.991,3.56 -1.777,3.741 -0.183,8.214 3.559,9.99 z" id="path7" inkscape:connector-curvature="0" style="fill:#ffffff;fill-opacity:1"></path><path d="m 202.14,68.727 c 0.66,0 1.332,-0.088 1.999,-0.272 4.03,-1.112 8.149,-2.105 12.243,-2.952 4.056,-0.839 6.664,-4.808 5.825,-8.864 -0.839,-4.057 -4.809,-6.663 -8.864,-5.825 -4.411,0.913 -8.85,1.983 -13.193,3.181 -3.993,1.102 -6.337,5.231 -5.235,9.225 0.917,3.325 3.935,5.507 7.225,5.507 z" id="path9" inkscape:connector-curvature="0" style="fill:#ffffff;fill-opacity:1"></path><path d="m 249.712,61.567 c 4.178,-0.132 8.432,-0.131 12.608,10e-4 0.081,0.003 0.162,0.004 0.242,0.004 4.032,0 7.363,-3.203 7.492,-7.261 0.132,-4.14 -3.117,-7.603 -7.258,-7.735 -4.49,-0.143 -9.066,-0.145 -13.562,-10e-4 -4.14,0.131 -7.39,3.594 -7.258,7.734 0.132,4.14 3.619,7.417 7.736,7.258 z" id="path11" inkscape:connector-curvature="0" style="fill:#ffffff;fill-opacity:1"></path><path d="m 295.647,65.509 c 4.093,0.847 8.211,1.841 12.241,2.953 0.668,0.185 1.34,0.272 2,0.272 3.29,0 6.308,-2.181 7.226,-5.506 1.103,-3.993 -1.241,-8.124 -5.233,-9.226 -4.344,-1.199 -8.783,-2.27 -13.194,-3.183 -4.056,-0.842 -8.025,1.768 -8.864,5.825 -0.84,4.058 1.768,8.026 5.824,8.865 z" id="path13" inkscape:connector-curvature="0" style="fill:#ffffff;fill-opacity:1"></path><path d="m 164.081,83.545 c 1.151,0 2.318,-0.266 3.413,-0.826 1.701,-0.871 3.442,-1.73 5.175,-2.553 3.742,-1.776 5.335,-6.25 3.559,-9.992 -1.776,-3.742 -6.249,-5.333 -9.992,-3.559 -1.869,0.887 -3.746,1.813 -5.58,2.752 -3.687,1.888 -5.145,6.407 -3.257,10.094 1.328,2.594 3.957,4.084 6.682,4.084 z" id="path15" inkscape:connector-curvature="0" style="fill:#ffffff;fill-opacity:1"></path><path d="m 439.603,340.755 c 0.945,0.395 1.925,0.582 2.889,0.582 2.935,0 5.721,-1.733 6.923,-4.61 0.793,-1.897 1.571,-3.84 2.313,-5.773 1.483,-3.868 -0.45,-8.205 -4.317,-9.688 -3.869,-1.483 -8.205,0.451 -9.688,4.317 -0.688,1.796 -1.411,3.6 -2.146,5.361 -1.6,3.822 0.204,8.214 4.026,9.811 z" id="path17" inkscape:connector-curvature="0" style="fill:#ffffff;fill-opacity:1"></path><path d="m 445.759,212.974 c 0.76,3.365 1.438,6.801 2.019,10.212 0.621,3.658 3.794,6.244 7.385,6.244 0.417,0 0.841,-0.035 1.266,-0.107 4.084,-0.694 6.831,-4.567 6.137,-8.651 -0.624,-3.674 -1.355,-7.375 -2.173,-11 -0.912,-4.041 -4.929,-6.578 -8.967,-5.666 -4.042,0.913 -6.578,4.928 -5.667,8.968 z" id="path19" inkscape:connector-curvature="0" style="fill:#ffffff;fill-opacity:1"></path><path d="m 465.458,261.616 c 0.05,-1.845 0.074,-3.735 0.074,-5.616 0,-1.875 -0.024,-3.757 -0.074,-5.596 -0.108,-4.073 -3.443,-7.3 -7.493,-7.3 -0.067,0 -0.136,10e-4 -0.204,0.002 -4.141,0.111 -7.407,3.557 -7.297,7.698 0.045,1.706 0.068,3.454 0.068,5.195 0,1.749 -0.023,3.504 -0.068,5.218 -0.11,4.141 3.157,7.586 7.298,7.697 0.068,0.001 0.136,0.002 0.203,0.002 4.05,10e-4 7.385,-3.227 7.493,-7.3 z" id="path21" inkscape:connector-curvature="0" style="fill:#ffffff;fill-opacity:1"></path><path d="m 460.388,302.348 c 0.817,-3.619 1.55,-7.321 2.175,-11.002 0.694,-4.084 -2.054,-7.957 -6.137,-8.651 -4.088,-0.693 -7.957,2.055 -8.65,6.137 -0.581,3.417 -1.26,6.853 -2.019,10.21 -0.913,4.041 1.622,8.056 5.663,8.968 0.557,0.126 1.111,0.186 1.659,0.186 3.428,0 6.522,-2.365 7.309,-5.848 z" id="path23" inkscape:connector-curvature="0" style="fill:#ffffff;fill-opacity:1"></path><path d="m 449.414,175.273 c -1.597,-3.822 -5.988,-5.624 -9.812,-4.029 -3.821,1.597 -5.626,5.99 -4.028,9.812 0.735,1.761 1.458,3.565 2.146,5.361 1.145,2.984 3.988,4.816 7.005,4.816 0.893,0 1.8,-0.161 2.684,-0.499 3.867,-1.483 5.801,-5.821 4.317,-9.688 -0.741,-1.933 -1.519,-3.875 -2.312,-5.773 z" id="path25" inkscape:connector-curvature="0" style="fill:#ffffff;fill-opacity:1"></path><path d="m 62.513,336.727 c 1.202,2.877 3.989,4.61 6.923,4.61 0.964,0 1.944,-0.187 2.889,-0.582 3.822,-1.597 5.625,-5.99 4.029,-9.812 -0.738,-1.766 -1.46,-3.569 -2.146,-5.359 -1.482,-3.867 -5.819,-5.802 -9.688,-4.319 -3.868,1.482 -5.802,5.819 -4.319,9.688 0.739,1.928 1.517,3.871 2.312,5.774 z" id="path27" inkscape:connector-curvature="0" style="fill:#ffffff;fill-opacity:1"></path><path d="m 56.765,229.431 c 3.59,0 6.764,-2.587 7.385,-6.245 0.579,-3.405 1.257,-6.84 2.018,-10.21 0.912,-4.041 -1.624,-8.055 -5.665,-8.967 -4.042,-0.913 -8.055,1.625 -8.967,5.665 -0.82,3.631 -1.551,7.333 -2.174,11.001 -0.694,4.083 2.055,7.957 6.138,8.65 0.425,0.071 0.848,0.106 1.265,0.106 z" id="path29" inkscape:connector-curvature="0" style="fill:#ffffff;fill-opacity:1"></path><path d="m 46.468,250.408 c -0.048,1.849 -0.073,3.73 -0.073,5.592 0,1.862 0.025,3.751 0.074,5.614 0.107,4.074 3.443,7.303 7.494,7.303 0.067,0 0.134,-10e-4 0.201,-0.002 4.141,-0.109 7.409,-3.554 7.3,-7.695 -0.046,-1.732 -0.069,-3.488 -0.069,-5.22 0,-1.731 0.023,-3.48 0.068,-5.199 0.108,-4.141 -3.161,-7.585 -7.301,-7.694 -4.171,-0.114 -7.586,3.16 -7.694,7.301 z" id="path31" inkscape:connector-curvature="0" style="fill:#ffffff;fill-opacity:1"></path><path d="m 51.54,302.347 c 0.787,3.484 3.881,5.85 7.309,5.85 0.547,0 1.103,-0.06 1.659,-0.186 4.041,-0.912 6.576,-4.927 5.664,-8.968 -0.76,-3.367 -1.439,-6.802 -2.019,-10.211 -0.694,-4.083 -4.565,-6.834 -8.651,-6.137 -4.083,0.694 -6.831,4.567 -6.137,8.651 0.624,3.672 1.356,7.373 2.175,11.001 z" id="path33" inkscape:connector-curvature="0" style="fill:#ffffff;fill-opacity:1"></path><path d="m 72.325,171.245 c -3.823,-1.595 -8.215,0.207 -9.812,4.029 -0.795,1.903 -1.573,3.846 -2.312,5.774 -1.482,3.868 0.452,8.205 4.319,9.688 0.883,0.338 1.79,0.499 2.683,0.499 3.017,0 5.861,-1.833 7.005,-4.818 0.686,-1.791 1.408,-3.594 2.146,-5.359 1.597,-3.824 -0.207,-8.216 -4.029,-9.813 z" id="path35" inkscape:connector-curvature="0" style="fill:#ffffff;fill-opacity:1"></path><path d="m 172.669,431.833 c -1.733,-0.823 -3.475,-1.682 -5.175,-2.553 -3.686,-1.887 -8.206,-0.429 -10.094,3.257 -1.888,3.687 -0.43,8.206 3.257,10.094 1.833,0.939 3.711,1.865 5.58,2.752 1.039,0.493 2.133,0.727 3.211,0.727 2.806,0 5.498,-1.583 6.781,-4.286 1.775,-3.741 0.182,-8.215 -3.56,-9.991 z" id="path37" inkscape:connector-curvature="0" style="fill:#ffffff;fill-opacity:1"></path><path d="m 262.288,450.433 c -4.178,0.133 -8.432,0.131 -12.608,-10e-4 -4.118,-0.152 -7.603,3.117 -7.735,7.257 -0.132,4.14 3.117,7.603 7.257,7.735 2.251,0.072 4.538,0.108 6.797,0.109 2.248,0 4.523,-0.036 6.765,-0.107 4.14,-0.131 7.39,-3.594 7.258,-7.734 -0.13,-4.141 -3.626,-7.391 -7.734,-7.259 z" id="path39" inkscape:connector-curvature="0" style="fill:#ffffff;fill-opacity:1"></path><path d="m 216.353,446.491 c -4.092,-0.847 -8.21,-1.84 -12.241,-2.953 -3.99,-1.104 -8.123,1.241 -9.226,5.233 -1.103,3.992 1.241,8.123 5.233,9.226 4.344,1.199 8.783,2.271 13.194,3.183 0.513,0.106 1.023,0.157 1.527,0.157 3.481,0 6.604,-2.438 7.336,-5.982 0.841,-4.057 -1.767,-8.025 -5.823,-8.864 z" id="path41" inkscape:connector-curvature="0" style="fill:#ffffff;fill-opacity:1"></path><path d="m 307.863,443.545 c -4.032,1.112 -8.151,2.105 -12.244,2.952 -4.056,0.839 -6.664,4.808 -5.825,8.864 0.733,3.544 3.854,5.982 7.337,5.982 0.504,0 1.015,-0.051 1.527,-0.157 4.41,-0.913 8.85,-1.983 13.193,-3.181 3.993,-1.102 6.337,-5.231 5.236,-9.224 -1.101,-3.993 -5.226,-6.339 -9.224,-5.236 z" id="path43" inkscape:connector-curvature="0" style="fill:#ffffff;fill-opacity:1"></path><path d="m 344.506,429.28 c -1.702,0.872 -3.443,1.731 -5.175,2.553 -3.742,1.776 -5.336,6.249 -3.56,9.991 1.283,2.704 3.975,4.286 6.78,4.286 1.078,0 2.173,-0.233 3.211,-0.727 1.867,-0.886 3.744,-1.812 5.581,-2.752 3.687,-1.888 5.145,-6.407 3.257,-10.094 -1.888,-3.686 -6.406,-5.144 -10.094,-3.257 z" id="path45" inkscape:connector-curvature="0" style="fill:#ffffff;fill-opacity:1"></path><path d="m 174.302,187.939 c -3.36,-2.422 -8.047,-1.664 -10.47,1.696 -13.999,19.41 -21.398,42.359 -21.398,66.365 0,62.621 50.946,113.567 113.567,113.567 62.621,0 113.566,-50.946 113.566,-113.567 0,-62.621 -50.946,-113.567 -113.567,-113.567 -23.677,0 -46.368,7.215 -65.62,20.866 -3.379,2.396 -4.176,7.077 -1.78,10.456 2.396,3.38 7.078,4.175 10.456,1.78 16.702,-11.842 36.393,-18.102 56.944,-18.102 54.351,0 98.567,44.217 98.567,98.567 0,54.35 -44.216,98.567 -98.567,98.567 -54.35,0 -98.567,-44.217 -98.567,-98.567 0,-20.836 6.419,-40.751 18.564,-57.59 2.423,-3.36 1.664,-8.048 -1.695,-10.471 z" id="path47" inkscape:connector-curvature="0" style="fill:#ffffff;fill-opacity:1"></path><path d="m 363.077,156.423 76.923,0 c 4.143,0 7.5,-3.358 7.5,-7.5 0,-4.142 -3.357,-7.5 -7.5,-7.5 l -68.98,0 c 3.722,-31.332 30.452,-55.711 62.77,-55.711 32.316,0 59.047,24.379 62.769,55.711 l -21.54,0 c -4.143,0 -7.5,3.358 -7.5,7.5 0,4.142 3.357,7.5 7.5,7.5 l 29.481,0 c 4.143,0 7.5,-3.358 7.5,-7.5 0,-33.458 -21.124,-62.065 -50.73,-73.214 9.39,-7.868 15.375,-19.673 15.375,-32.853 C 476.645,19.225 457.42,0 433.789,0 c -23.631,0 -42.856,19.225 -42.856,42.855 0,13.18 5.985,24.985 15.376,32.853 -29.607,11.15 -50.731,39.756 -50.731,73.214 -10e-4,4.143 3.357,7.501 7.499,7.501 z M 405.933,42.855 C 405.933,27.496 418.429,15 433.789,15 c 15.359,0 27.855,12.496 27.855,27.855 0,15.36 -12.496,27.856 -27.855,27.856 -15.36,0 -27.856,-12.496 -27.856,-27.856 z" id="path49" inkscape:connector-curvature="0" style="fill:#ffffff;fill-opacity:1"></path><path d="m 105.692,431.286 c 9.39,-7.868 15.375,-19.672 15.375,-32.852 0,-23.631 -19.225,-42.856 -42.855,-42.856 -23.631,0 -42.856,19.225 -42.856,42.856 0,13.18 5.985,24.985 15.375,32.853 C 21.124,442.435 0,471.042 0,504.5 c 0,4.142 3.358,7.5 7.5,7.5 l 76.923,0 c 4.142,0 7.5,-3.358 7.5,-7.5 0,-4.142 -3.358,-7.5 -7.5,-7.5 l -68.98,0 c 3.721,-31.332 30.452,-55.711 62.769,-55.711 32.317,0 59.047,24.379 62.768,55.711 l -21.54,0 c -4.142,0 -7.5,3.358 -7.5,7.5 0,4.142 3.358,7.5 7.5,7.5 l 29.482,0 c 4.142,0 7.5,-3.358 7.5,-7.5 0.001,-33.458 -21.123,-62.065 -50.73,-73.214 z M 50.355,398.433 c 0,-15.36 12.496,-27.856 27.856,-27.856 15.359,0 27.855,12.496 27.855,27.856 0,15.359 -12.496,27.855 -27.855,27.855 -15.359,10e-4 -27.856,-12.496 -27.856,-27.855 z" id="path51" inkscape:connector-curvature="0" style="fill:#ffffff;fill-opacity:1"></path><path d="m 7.5,156.423 141.423,0 c 4.142,0 7.5,-3.358 7.5,-7.5 0,-33.458 -21.124,-62.065 -50.731,-73.214 9.39,-7.868 15.375,-19.673 15.375,-32.853 C 121.067,19.225 101.842,0 78.211,0 54.581,0 35.355,19.225 35.355,42.855 35.355,56.035 41.34,67.84 50.73,75.708 21.124,86.858 0,115.465 0,148.923 c 0,4.142 3.358,7.5 7.5,7.5 z M 50.355,42.855 C 50.355,27.496 62.852,15 78.211,15 c 15.359,0 27.855,12.496 27.855,27.855 0,15.36 -12.496,27.856 -27.855,27.856 -15.359,0 -27.856,-12.496 -27.856,-27.856 z m 27.856,42.856 c 32.317,0 59.048,24.379 62.769,55.711 l -125.538,0 C 19.164,110.091 45.895,85.711 78.211,85.711 Z" id="path53" inkscape:connector-curvature="0" style="fill:#ffffff;fill-opacity:1"></path><path d="m 461.27,431.286 c 9.39,-7.868 15.375,-19.672 15.375,-32.853 0,-23.631 -19.225,-42.856 -42.855,-42.856 -23.63,0 -42.856,19.225 -42.856,42.856 0,13.18 5.985,24.985 15.376,32.853 -29.607,11.15 -50.731,39.756 -50.731,73.214 0,4.142 3.357,7.5 7.5,7.5 l 141.421,0 c 4.143,0 7.5,-3.358 7.5,-7.5 0,-33.458 -21.124,-62.065 -50.73,-73.214 z m -55.337,-32.853 c 0,-15.36 12.496,-27.856 27.856,-27.856 15.359,0 27.855,12.496 27.855,27.856 0,15.359 -12.496,27.855 -27.855,27.855 -15.36,10e-4 -27.856,-12.496 -27.856,-27.855 z M 371.02,497 c 3.722,-31.332 30.452,-55.711 62.77,-55.711 32.316,0 59.047,24.379 62.769,55.711 z" id="path55" inkscape:connector-curvature="0" style="fill:#ffffff;fill-opacity:1"></path><path d="m 250.697,337.796 c 1.464,1.464 3.384,2.197 5.303,2.197 1.919,0 3.839,-0.732 5.304,-2.197 L 319.8,279.3 c 19.185,-19.185 19.185,-50.402 0,-69.588 0,0 0,0 -0.001,0 -17.249,-17.249 -44.581,-18.945 -63.799,-4.938 -19.217,-14.005 -46.55,-12.311 -63.799,4.938 -19.185,19.186 -19.185,50.403 0,69.588 z m -47.89,-117.478 c 6.631,-6.631 15.404,-9.954 24.184,-9.954 8.595,0 17.196,3.188 23.791,9.577 2.908,2.817 7.528,2.818 10.438,0 13.328,-12.915 34.851,-12.747 47.974,0.377 13.337,13.337 13.337,35.038 0,48.375 L 256,321.886 202.807,268.693 c -13.337,-13.337 -13.336,-35.037 0,-48.375 z" id="path57" inkscape:connector-curvature="0" style="fill:#ffffff;fill-opacity:1"></path></g></g></svg>