<svg xmlns:dc="http://purl.org/dc/elements/1.1/" xmlns:cc="http://creativecommons.org/ns#" xmlns:rdf="http://www.w3.org/1999/02/22-rdf-syntax-ns#" xmlns:svg="http://www.w3.org/2000/svg" xmlns="http://www.w3.org/2000/svg" xmlns:sodipodi="http://sodipodi.sourceforge.net/DTD/sodipodi-0.dtd" xmlns:inkscape="http://www.inkscape.org/namespaces/inkscape" id="Capa_1" x="0px" y="0px" viewBox="0 0 18 18" xml:space="preserve" inkscape:version="0.91 r13725" sodipodi:docname="icon-white-pin.svg" width="18" height="18"><metadata></metadata><defs id="defs41"></defs><g id="g3" transform="matrix(0.03515632,0,0,0.03515632,0.14196544,-7e-7)" style="fill:#ffffff;fill-opacity:1"><g id="g5" style="fill:#ffffff;fill-opacity:1"><path d="M 378.651,42.006 C 342.8,14.527 300.01,0 254.916,0 216.14,0 178.143,11.133 144.912,32.283 66.68,83.478 44.462,190.366 95.39,270.559 L 245.722,506.95 c 2.037,3.203 5.539,5.049 9.194,5.049 1.013,0 2.037,-0.136 3.045,-0.436 4.652,-1.351 7.849,-5.61 7.849,-10.458 l 0,-245.105 c 0,-6.013 -4.88,-10.894 -10.894,-10.894 -19.265,0 -37.273,-7.658 -50.71,-21.569 -13.661,-14.145 -20.801,-32.855 -20.12,-52.491 1.868,-35.993 31.559,-65.678 67.519,-67.568 19.5,-0.904 37.992,6.019 52.11,19.494 14.189,13.541 22.005,31.771 22.005,51.325 0,6.013 4.88,10.894 10.894,10.894 6.013,0 10.894,-4.88 10.894,-10.894 0,-25.567 -10.207,-49.392 -28.748,-67.088 -18.465,-17.626 -42.676,-26.678 -68.227,-25.491 -47.011,2.473 -85.755,41.216 -88.206,88.385 -0.899,25.785 8.41,50.138 26.216,68.57 15.017,15.551 34.413,25.132 55.481,27.588 l 0,197.42 L 113.778,258.876 C 69.207,188.688 88.527,95.221 156.726,50.59 c 29.609,-18.846 63.559,-28.803 98.19,-28.803 40.257,0 78.467,12.969 110.407,37.458 59.37,46.298 74.387,131.056 34.958,197.109 l -45.753,75.716 c -3.11,5.147 -1.454,11.847 3.693,14.957 5.142,3.105 11.841,1.46 14.957,-3.693 l 45.786,-75.76 C 464.046,192.049 446.747,95.101 378.651,42.006 Z" id="path7" inkscape:connector-curvature="0" style="fill:#ffffff;fill-opacity:1"></path></g></g><g id="g9" transform="translate(0,-494)"></g><g id="g11" transform="translate(0,-494)"></g><g id="g13" transform="translate(0,-494)"></g><g id="g15" transform="translate(0,-494)"></g><g id="g17" transform="translate(0,-494)"></g><g id="g19" transform="translate(0,-494)"></g><g id="g21" transform="translate(0,-494)"></g><g id="g23" transform="translate(0,-494)"></g><g id="g25" transform="translate(0,-494)"></g><g id="g27" transform="translate(0,-494)"></g><g id="g29" transform="translate(0,-494)"></g><g id="g31" transform="translate(0,-494)"></g><g id="g33" transform="translate(0,-494)"></g><g id="g35" transform="translate(0,-494)"></g><g id="g37" transform="translate(0,-494)"></g></svg>