<svg xmlns:dc="http://purl.org/dc/elements/1.1/" xmlns:cc="http://creativecommons.org/ns#" xmlns:rdf="http://www.w3.org/1999/02/22-rdf-syntax-ns#" xmlns:svg="http://www.w3.org/2000/svg" xmlns="http://www.w3.org/2000/svg" xmlns:sodipodi="http://sodipodi.sourceforge.net/DTD/sodipodi-0.dtd" xmlns:inkscape="http://www.inkscape.org/namespaces/inkscape" id="Capa_1" x="0px" y="0px" viewBox="0 0 18 18" xml:space="preserve" inkscape:version="0.91 r13725" sodipodi:docname="icon-next-white.svg" width="18" height="18"><metadata></metadata><defs id="defs41"></defs><g id="g3" transform="matrix(0.0405857,0,0,0.0405857,1.4959601,-5.812007e-4)" style="fill-opacity:1;fill:#ffffff"><g id="g5" style="fill-opacity:1;fill:#ffffff"><path d="m 336.226,209.591 -204.8,-204.8 c -6.78,-6.548 -17.584,-6.36 -24.132,0.42 -6.388,6.614 -6.388,17.099 0,23.712 L 300.028,221.657 107.294,414.391 c -6.663,6.664 -6.663,17.468 0,24.132 6.665,6.663 17.468,6.663 24.132,0 l 204.8,-204.8 c 6.663,-6.665 6.663,-17.468 0,-24.132 z" id="path7" inkscape:connector-curvature="0" style="fill-opacity:1;fill:#ffffff"></path></g></g><g id="g9" transform="translate(0,-425.51999)"></g><g id="g11" transform="translate(0,-425.51999)"></g><g id="g13" transform="translate(0,-425.51999)"></g><g id="g15" transform="translate(0,-425.51999)"></g><g id="g17" transform="translate(0,-425.51999)"></g><g id="g19" transform="translate(0,-425.51999)"></g><g id="g21" transform="translate(0,-425.51999)"></g><g id="g23" transform="translate(0,-425.51999)"></g><g id="g25" transform="translate(0,-425.51999)"></g><g id="g27" transform="translate(0,-425.51999)"></g><g id="g29" transform="translate(0,-425.51999)"></g><g id="g31" transform="translate(0,-425.51999)"></g><g id="g33" transform="translate(0,-425.51999)"></g><g id="g35" transform="translate(0,-425.51999)"></g><g id="g37" transform="translate(0,-425.51999)"></g></svg>