<svg xmlns:dc="http://purl.org/dc/elements/1.1/" xmlns:cc="http://creativecommons.org/ns#" xmlns:rdf="http://www.w3.org/1999/02/22-rdf-syntax-ns#" xmlns:svg="http://www.w3.org/2000/svg" xmlns="http://www.w3.org/2000/svg" xmlns:sodipodi="http://sodipodi.sourceforge.net/DTD/sodipodi-0.dtd" xmlns:inkscape="http://www.inkscape.org/namespaces/inkscape" id="Capa_1" x="0px" y="0px" viewBox="0 0 14 14" xml:space="preserve" inkscape:version="0.91 r13725" sodipodi:docname="icon-white-check.svg" width="14" height="14"><metadata></metadata><defs id="defs41"></defs><g id="g3" transform="matrix(0.03281251,0,0,0.03281251,0,1.6765664)" style="fill:#ffffff;fill-opacity:1"><g id="g5" style="fill:#ffffff;fill-opacity:1"><path d="m 421.876,56.307 c -6.548,-6.78 -17.352,-6.968 -24.132,-0.42 -0.142,0.137 -0.282,0.277 -0.42,0.42 L 119.257,334.375 28.923,244.041 c -6.78,-6.548 -17.584,-6.36 -24.132,0.42 -6.388,6.614 -6.388,17.099 0,23.713 l 102.4,102.4 c 6.665,6.663 17.468,6.663 24.132,0 L 421.456,80.44 c 6.78,-6.549 6.968,-17.353 0.42,-24.133 z" id="path7" inkscape:connector-curvature="0" style="fill:#ffffff;fill-opacity:1"></path></g></g><g id="g9" transform="translate(0,-412.66699)"></g><g id="g11" transform="translate(0,-412.66699)"></g><g id="g13" transform="translate(0,-412.66699)"></g><g id="g15" transform="translate(0,-412.66699)"></g><g id="g17" transform="translate(0,-412.66699)"></g><g id="g19" transform="translate(0,-412.66699)"></g><g id="g21" transform="translate(0,-412.66699)"></g><g id="g23" transform="translate(0,-412.66699)"></g><g id="g25" transform="translate(0,-412.66699)"></g><g id="g27" transform="translate(0,-412.66699)"></g><g id="g29" transform="translate(0,-412.66699)"></g><g id="g31" transform="translate(0,-412.66699)"></g><g id="g33" transform="translate(0,-412.66699)"></g><g id="g35" transform="translate(0,-412.66699)"></g><g id="g37" transform="translate(0,-412.66699)"></g></svg>